<svg width="400" height="400" viewBox="0 0 400 400" fill="none" xmlns="http://www.w3.org/2000/svg">
<rect width="400" height="400" fill="black"/>
<g clip-path="url(#clip0_1045_837)">
<path d="M265.026 271.002C257.83 271.002 251.994 268.767 247.518 264.293C243.038 259.821 240.802 253.841 240.802 246.363V184.761H226.364V161.881H240.802V128H268.548V161.881H298.5V184.761H268.548V241.521C268.548 245.921 270.604 248.123 274.716 248.123H295.856V271.002H265.026Z" fill="white"/>
<path d="M204.362 174.325L158.23 250.768H154.266V178.601C154.266 169.37 146.776 161.887 137.536 161.887H126.518V253.01C126.518 262.95 134.586 271.01 144.536 271.01H163.396C173.396 271.01 182.638 265.682 187.64 257.03L242.664 161.887H226.404C217.384 161.887 209.02 166.606 204.362 174.325Z" fill="white"/>
<path d="M99.9939 161.887H127.8V184.769H99.9939V161.887Z" fill="white"/>
</g>
<defs>
<clipPath id="clip0_1045_837">
<rect width="200" height="143.86" fill="white" transform="translate(100 128)"/>
</clipPath>
</defs>
</svg>
