<svg width="24" height="24" viewBox="0 0 24 24" fill="none" xmlns="http://www.w3.org/2000/svg">
<path d="M20.281 9.28104L12.781 16.781C12.7114 16.8508 12.6287 16.9061 12.5376 16.9438C12.4466 16.9816 12.349 17.001 12.2504 17.001C12.1519 17.001 12.0543 16.9816 11.9632 16.9438C11.8722 16.9061 11.7894 16.8508 11.7198 16.781L4.21979 9.28104C4.07906 9.14031 4 8.94944 4 8.75042C4 8.55139 4.07906 8.36052 4.21979 8.21979C4.36052 8.07906 4.55139 8 4.75042 8C4.94944 8 5.14031 8.07906 5.28104 8.21979L12.2504 15.1901L19.2198 8.21979C19.2895 8.15011 19.3722 8.09483 19.4632 8.05712C19.5543 8.01941 19.6519 8 19.7504 8C19.849 8 19.9465 8.01941 20.0376 8.05712C20.1286 8.09483 20.2114 8.15011 20.281 8.21979C20.3507 8.28947 20.406 8.3722 20.4437 8.46324C20.4814 8.55429 20.5008 8.65187 20.5008 8.75042C20.5008 8.84896 20.4814 8.94654 20.4437 9.03759C20.406 9.12863 20.3507 9.21136 20.281 9.28104Z" fill="#737373"/>
</svg>
